PathFileType	4	(X/Y/Z)	/Users/itak/Documents/Research/Walk-IL/dataset/trc/00055_00006.trc
DataRate	CameraRate	NumFrames	NumMarkers	Units	OrigDataRate	OrigDataStartFrame	OrigNumFrames
100.000000	100.000000	4	53	mm	100.000000	181	485
Frame#	Time	RPSI			LPSI			L3			STRN			T10			C7			CLAV			RBAK			LBAK			LSHO			LUPA			LAEL			LAOL			LWTS			LWPS			LFRA			LHPS			LHTS			RSHO			RUPA			RAEL			RAOL			RWTS			RWPS			RFRA			RIFD			RHTS			RHPS			RBHD			LFHD			RFHD			LBHD			LHIP			RHIP			RASI			LASI			LKNE			LTHI			LANK			LTIP			LTOE			LMT1			LMT5			LHEE			RKNE			RTHI			RANK			RTIP			RTOE			RMT1			RMT5			RHEE			LIFD			
		X1	Y1	Z1	X2	Y2	Z2	X3	Y3	Z3	X4	Y4	Z4	X5	Y5	Z5	X6	Y6	Z6	X7	Y7	Z7	X8	Y8	Z8	X9	Y9	Z9	X10	Y10	Z10	X11	Y11	Z11	X12	Y12	Z12	X13	Y13	Z13	X14	Y14	Z14	X15	Y15	Z15	X16	Y16	Z16	X17	Y17	Z17	X18	Y18	Z18	X19	Y19	Z19	X20	Y20	Z20	X21	Y21	Z21	X22	Y22	Z22	X23	Y23	Z23	X24	Y24	Z24	X25	Y25	Z25	X26	Y26	Z26	X27	Y27	Z27	X28	Y28	Z28	X29	Y29	Z29	X30	Y30	Z30	X31	Y31	Z31	X32	Y32	Z32	X33	Y33	Z33	X34	Y34	Z34	X35	Y35	Z35	X36	Y36	Z36	X37	Y37	Z37	X38	Y38	Z38	X39	Y39	Z39	X40	Y40	Z40	X41	Y41	Z41	X42	Y42	Z42	X43	Y43	Z43	X44	Y44	Z44	X45	Y45	Z45	X46	Y46	Z46	X47	Y47	Z47	X48	Y48	Z48	X49	Y49	Z49	X50	Y50	Z50	X51	Y51	Z51	X52	Y52	Z52	X53	Y53	Z53	

182	1.81	657.8189086914062	1020.063659667969	-203.4709167480469	641.7760009765625	1005.709045410156	-375.6551818847656	656.978271484375	1082.836181640625	-301.6957092285156	933.16796875	1246.648315429688	-299.6967468261719	659.4321899414062	1213.822265625	-315.0167236328125	747.7623901367188	1472.567016601562	-315.4099731445312	915.83984375	1363.866455078125	-301.6694946289062	662.976318359375	1343.2138671875	-244.5508880615234	729.802490234375	1437.471313476562	-419.0860900878906	839.7962036132812	1430.7509765625	-481.4306945800781	825.15087890625	1304.728881835938	-559.805419921875	847.9119262695312	1088.283203125	-576.8792724609375	775.2105712890625	1073.607666015625	-501.9334411621094	948.211181640625	864.39990234375	-481.0635070800781	902.0880126953125	843.30419921875	-548.26416015625	877.7050170898438	980.7227783203125	-573.3953857421875	941.6159057617188	766.9337158203125	-532.2637939453125	978.4699096679688	784.7265014648438	-473.5655517578125	797.139404296875	1428.217407226562	-136.3492431640625	772.2398071289062	1362.252685546875	-75.564453125	702.6959228515625	1108.62841796875	-36.47150421142578	731.2951049804688	1077.749633789062	-127.7051773071289	833.868408203125	848.5999145507812	-50.59964370727539	757.697509765625	836.260498046875	-10.02055358886719	707.69873046875	1026.003784179688	-23.48639297485352	835.6320190429688	659.7208862304688	-65.99149322509766	853.4114990234375	744.9339599609375	-46.89176559448242	789.930908203125	744.5508422851562	-3.528683185577393	801.3903198242188	1637.695434570312	-370.9642028808594	958.2367553710938	1668.181762695312	-224.6923370361328	975.0945434570312	1674.805541992188	-349.5080261230469	791.7899780273438	1623.734130859375	-234.3739776611328	737.3322143554688	933.931884765625	-469.6961669921875	724.8436279296875	949.7540283203125	-123.7165756225586	848.3665161132812	962.1478271484375	-152.0102386474609	850.4605712890625	937.5195922851562	-417.9108276367188	827.09326171875	468.2554016113281	-387.3135681152344	791.6339111328125	607.106689453125	-436.713623046875	608.3541259765625	47.45393371582031	-394.334228515625	710.9334106445312	239.3341674804688	-402.8465576171875	810.5535278320312	33.97215270996094	-387.1302185058594	762.207275390625	34.43950653076172	-332.8849487304688	711.4581298828125	32.67806243896484	-433.3191833496094	553.2579956054688	52.01980972290039	-319.2759094238281	922.7069702148438	528.41650390625	-131.6025085449219	843.2493286132812	788.045654296875	-106.8574600219727	961.0186767578125	37.37772750854492	-129.758056640625	935.02001953125	405.5550537109375	-122.8618392944336	1172.123291015625	48.31539916992188	-187.7930603027344	1106.815185546875	59.81378555297852	-218.1135559082031	1088.055419921875	41.6231689453125	-124.8740386962891	909.3406982421875	44.34005355834961	-182.2409820556641	970.3524780273438	682.4864501953125	-443.4046020507812	
183	1.82	648.8941040039062	1020.275390625	-205.5912017822266	633.7922973632812	1005.531005859375	-377.8439025878906	648.6106567382812	1083.2626953125	-303.8455505371094	925.4000244140625	1246.60107421875	-300.7123107910156	651.5669555664062	1214.337890625	-317.0197143554688	740.4456787109375	1472.887573242188	-316.896240234375	908.3053588867188	1363.878051757812	-302.685546875	655.2529296875	1343.622680664062	-246.3974304199219	722.8172607421875	1437.859252929688	-420.6780700683594	833.0337524414062	1431.07421875	-482.5593872070312	818.7120971679688	1305.391357421875	-561.4041748046875	841.609619140625	1088.930297851562	-579.240234375	768.4520874023438	1074.000366210938	-504.8593444824219	943.407958984375	866.7991943359375	-481.08203125	897.9939575195312	844.6317138671875	-548.3671875	872.392822265625	981.60693359375	-574.9041137695312	938.19775390625	768.7481689453125	-531.3563232421875	974.466064453125	787.4869384765625	-472.63427734375	789.2574462890625	1428.273071289062	-137.7523193359375	764.0552978515625	1362.3642578125	-77.06537628173828	694.060791015625	1108.879272460938	-37.87666320800781	722.9658203125	1077.850708007812	-128.9759063720703	825.3278198242188	848.8515625	-51.65544509887695	749.2274169921875	836.5493774414062	-10.95361328125	699.0161743164062	1026.227172851562	-24.77292633056641	826.960205078125	659.925048828125	-67.02787780761719	844.7872314453125	745.1444702148438	-48.0048942565918	781.4412231445312	744.8139038085938	-4.463107109069824	794.20654296875	1637.718627929688	-372.0925903320312	950.9371948242188	1668.267333984375	-225.7184600830078	967.9010009765625	1674.8837890625	-350.4994812011719	784.4727783203125	1623.74169921875	-235.4850921630859	730.1531982421875	933.654296875	-470.9223327636719	715.5026245117188	950.2780151367188	-125.1918716430664	839.2678833007812	962.9776611328125	-152.5395050048828	842.956298828125	937.674560546875	-418.4569091796875	823.3714599609375	468.7759094238281	-387.0245666503906	786.9847412109375	607.1988525390625	-437.0485229492188	608.1005859375	46.82720184326172	-393.94091796875	709.2674560546875	238.9197540283203	-402.247802734375	810.4964599609375	34.01303863525391	-387.1098022460938	762.1014404296875	34.09402084350586	-332.5691833496094	711.3025512695312	32.76214981079102	-432.9329223632812	553.0428466796875	50.50588607788086	-318.7747802734375	916.270751953125	529.8817749023438	-130.9408874511719	834.7666015625	789.1986694335938	-106.8423919677734	950.6384887695312	37.24272155761719	-126.7939834594727	927.9596557617188	406.7700805664062	-121.965461730957	1160.462890625	52.91915893554688	-188.7225036621094	1094.048583984375	62.53631210327148	-218.0434417724609	1077.742065429688	43.42136764526367	-124.4010162353516	897.74560546875	43.61254119873047	-178.3900909423828	967.2369995117188	685.5823364257812	-441.6069946289062	
184	1.83	640.1361694335938	1020.504211425781	-207.5721740722656	625.8837890625	1005.360412597656	-379.8825988769531	640.3926391601562	1083.674438476562	-305.8390197753906	917.6310424804688	1246.640625	-301.5960693359375	643.71240234375	1214.865112304688	-318.8861694335938	733.05224609375	1473.255981445312	-318.2608642578125	900.7340698242188	1363.975952148438	-303.5915832519531	647.4862060546875	1344.064575195312	-248.1214752197266	715.7537841796875	1438.270141601562	-422.1462707519531	826.1810302734375	1431.396606445312	-483.5831604003906	812.1412963867188	1306.0546875	-562.9056396484375	835.2299194335938	1089.608154296875	-581.6497802734375	761.48486328125	1074.390625	-507.9117126464844	938.4247436523438	869.298095703125	-481.0391235351562	893.807373046875	846.0301513671875	-548.436767578125	866.994384765625	982.5358276367188	-576.4190063476562	934.6793212890625	770.6384887695312	-530.3233642578125	970.3138427734375	790.4027099609375	-471.5848083496094	781.309326171875	1428.350341796875	-139.0287628173828	755.8257446289062	1362.479370117188	-78.43804931640625	685.4669799804688	1109.088989257812	-39.14323806762695	714.67529296875	1077.913940429688	-130.1220550537109	816.91259765625	849.1204223632812	-52.60508346557617	740.8270874023438	836.7845458984375	-11.88132667541504	690.3889770507812	1026.410766601562	-25.95559692382812	818.59375	660.1790771484375	-68.05123901367188	836.3675537109375	745.3963623046875	-49.02400970458984	773.0661010742188	745.0402221679688	-5.422706127166748	786.9635009765625	1637.82958984375	-373.1299743652344	943.5974731445312	1668.440185546875	-226.6741638183594	960.6737670898438	1675.029663085938	-351.4301147460938	777.1342163085938	1623.8525390625	-236.4947052001953	723.047607421875	933.4148559570312	-472.0302734375	706.36328125	950.8555297851562	-126.5449752807617	830.372314453125	963.9047241210938	-152.9806213378906	835.516845703125	937.8552856445312	-418.873291015625	819.7931518554688	469.3754577636719	-386.7654724121094	782.413330078125	607.3998413085938	-437.319091796875	607.8761596679688	46.32253265380859	-393.5942687988281	707.6520385742188	238.6745300292969	-401.7300720214844	810.4349975585938	34.06914901733398	-387.0946350097656	761.9964599609375	33.75529098510742	-332.2987060546875	711.1671752929688	32.84835052490234	-432.5911254882812	552.8912353515625	49.23700714111328	-318.2864685058594	909.9091796875	531.337158203125	-130.4805908203125	826.6416625976562	790.4146728515625	-106.9252777099609	937.6175537109375	37.21940994262695	-124.2777709960938	920.2643432617188	407.78564453125	-121.25146484375	1146.4951171875	56.92737579345703	-188.5069122314453	1079.323486328125	64.5460205078125	-217.3553924560547	1064.640991210938	45.1474494934082	-123.3915939331055	883.9337158203125	42.92369079589844	-175.3288726806641	964.0188598632812	688.8995361328125	-439.6783447265625	
185	1.84	631.5789184570312	1020.78564453125	-209.3667755126953	618.05419921875	1005.250366210938	-381.7176818847656	632.3307495117188	1084.100341796875	-307.6401062011719	909.8676147460938	1246.79541015625	-302.3565979003906	635.8793334960938	1215.415161132812	-320.6005859375	725.5799560546875	1473.682373046875	-319.5093383789062	893.127685546875	1364.18408203125	-304.3975219726562	639.6754760742188	1344.552368164062	-249.7247314453125	708.6025390625	1438.720092773438	-423.4913940429688	819.2267456054688	1431.745849609375	-484.5130615234375	805.4260864257812	1306.73876953125	-564.3092041015625	828.7794799804688	1090.339599609375	-584.0609741210938	754.361572265625	1074.797729492188	-511.0283508300781	933.2388916015625	871.884765625	-480.9249877929688	889.5081176757812	847.5130615234375	-548.4800415039062	861.5035400390625	983.5326538085938	-577.9118041992188	931.0322875976562	772.6221923828125	-529.20751953125	965.98095703125	793.4667358398438	-470.4436950683594	773.2950439453125	1428.474975585938	-140.185546875	747.5534057617188	1362.623046875	-79.69034576416016	676.9500122070312	1109.277954101562	-40.28451538085938	706.4400024414062	1077.963989257812	-131.1703948974609	808.62451171875	849.413330078125	-53.45050048828125	732.502197265625	836.9891357421875	-12.79207992553711	681.8439331054688	1026.582275390625	-27.04743957519531	810.5091552734375	660.4896850585938	-69.03068542480469	828.1461791992188	745.6978149414062	-49.93332290649414	764.8026123046875	745.251220703125	-6.386669635772705	779.6649780273438	1638.052978515625	-374.0810241699219	936.21435546875	1668.707641601562	-227.5519866943359	953.4135131835938	1675.2578125	-352.2943420410156	769.7742919921875	1624.084594726562	-237.4169006347656	715.9647827148438	933.254638671875	-473.0116271972656	697.4678344726562	951.5082397460938	-127.7444000244141	821.7051391601562	964.9166870117188	-153.3544921875	828.1171875	938.0757446289062	-419.1849670410156	816.354248046875	470.0877380371094	-386.586181640625	777.8841552734375	607.7410888671875	-437.554931640625	607.6887817382812	45.93880081176758	-393.3053283691406	706.0975341796875	238.6108093261719	-401.3253479003906	810.3840942382812	34.13326263427734	-387.0802307128906	761.9061889648438	33.45703887939453	-332.0848999023438	711.0554809570312	32.93223190307617	-432.3024597167969	552.8110961914062	48.22402191162109	-317.831787109375	903.4727172851562	532.73388671875	-130.2170715332031	818.8515014648438	791.66552734375	-107.1543121337891	921.8983764648438	37.3825569152832	-122.3206939697266	911.7208862304688	408.5928649902344	-120.6766357421875	1130.311889648438	60.06312942504883	-186.8831634521484	1062.8076171875	65.77243041992188	-215.8874359130859	1048.725830078125	46.71457672119141	-121.7285537719727	867.9379272460938	42.45035934448242	-173.2599945068359	960.6529541015625	692.40478515625	-437.673095703125	
